<svg xmlns="http://www.w3.org/2000/svg" width="220" height="200" viewBox="0 0 220 200">
  <defs>
    <linearGradient id="hg" x1="0%" y1="0%" x2="100%" y2="100%">
      <stop offset="0%"   stop-color="#92ce31"/>
      <stop offset="40%"  stop-color="#5ab87e"/>
      <stop offset="70%" stop-color="#1477d4"/>
    </linearGradient>
    <mask id="cut">
      <path d="M110 178 C65 150, 16 122, 16 76 C16 50, 35 28, 60 28 C76 28, 90 37, 110 54 C130 37, 144 28, 160 28 C185 28, 204 50, 204 76 C204 122, 155 150, 110 178 Z" fill="white"/>
      <rect x="101" y="70" width="19" height="62" rx="4" fill="black"/>
      <rect x="79"  y="91" width="63" height="19" rx="4" fill="black"/>
      <polyline
        points="16,101  44,101  50,101  56,68  61,101  66,134  72,101  77,101  101,101  120,101  144,101  149,101  154,68  159,101  164,130  170,101  175,101  204,101"
        fill="none" stroke="black" stroke-width="6"
        stroke-linecap="round" stroke-linejoin="round"
        stroke-dasharray="500" stroke-dashoffset="500">
        <animate
          attributeName="stroke-dashoffset"
          values="500; 0; 0; -500; 500"
          keyTimes="0; 0.38; 0.55; 0.93; 1"
          dur="6s"
          repeatCount="indefinite"
          calcMode="spline"
          keySplines="0.4 0 0.2 1; 0 0 1 1; 0.4 0 0.2 1; 0 0 1 1"/>
        <animate
          attributeName="opacity"
          values="1; 1; 1; 1; 0; 0"
          keyTimes="0; 0.38; 0.55; 0.93; 0.94; 1"
          dur="6s"
          repeatCount="indefinite"
          calcMode="discrete"/>
      </polyline>
    </mask>
  </defs>
  <path d="M110 178 C65 150, 16 122, 16 76 C16 50, 35 28, 60 28 C76 28, 90 37, 110 54 C130 37, 144 28, 160 28 C185 28, 204 50, 204 76 C204 122, 155 150, 110 178 Z"
    fill="url(#hg)" mask="url(#cut)"/>
</svg>
